<svg xmlns="http://www.w3.org/2000/svg" version="1.1" viewBox="0 0 798.457 243.622">
  <defs>
    <style>

      .st1 {
        fill: #ffffffc8;
      }
    </style>
  </defs>
  <g id="base">
    <path class="st1" d="M108.42,73.277c.122,1.351.186,2.632.186,3.847v3.645c0,5.264-1.144,10.295-3.428,15.084-2.286,4.793-5.496,9.045-9.633,12.757-4.139,3.714-9.048,6.649-14.728,8.808-5.682,2.161-11.919,3.239-18.71,3.239-10.128,0-17.691-2.496-22.693-7.491-5.002-4.992-7.503-11.472-7.503-19.438,0-6.479,2.007-13.161,6.021-20.045,4.012-6.884,10.651-13.162,19.914-18.831s21.489-10.358,36.68-14.072c15.19-3.711,34.022-5.568,56.501-5.568,6.915,0,13.214.203,18.896.607,5.68.405,10.56.607,14.635.607,3.581,0,6.577-.202,8.985-.607,2.408-.405,4.475-.607,6.205-.607,1.482,0,2.84.506,4.076,1.519,1.232,1.013,1.853,2.465,1.853,4.354,0,1.215-.342,2.196-1.02,2.936-.68.744-1.884,1.25-3.612,1.519-1.73.272-4.046.44-6.946.506-2.903.069-6.577.101-11.022.101-8.646,0-15.839,1.655-21.582,4.961-5.742,3.309-11.086,8.302-16.024,14.983-4.94,6.682-10.066,15.053-15.375,25.108-5.312,10.058-11.92,21.766-19.822,35.13-2.718,4.591-6.146,9.789-10.281,15.591-4.14,5.806-9.049,11.272-14.728,16.401-5.682,5.132-12.166,9.45-19.451,12.959-7.288,3.508-15.5,5.264-24.639,5.264-3.459,0-7.103-.439-10.93-1.315-3.829-.88-7.317-2.294-10.467-4.252-3.148-1.956-5.742-4.557-7.78-7.796s-3.057-7.22-3.057-11.946c0-2.968.771-5.499,2.315-7.593,1.543-2.092,3.734-3.139,6.577-3.139,1.974,0,3.612.708,4.909,2.126,1.296,1.417,1.944,3.208,1.944,5.365,0,2.025-.619,3.646-1.853,4.86-1.235,1.215-2.657,1.822-4.261,1.822-.865,0-1.606-.133-2.223-.405.616,6.479,3.396,11.408,8.336,14.781,4.938,3.376,11.052,5.062,18.34,5.062,6.915,0,13.274-1.686,19.081-5.062,5.804-3.373,11.208-7.827,16.209-13.364,5.002-5.533,9.726-11.845,14.172-18.932s8.86-14.442,13.245-22.07c4.383-7.625,8.8-15.186,13.246-22.678,4.445-7.492,9.138-14.341,14.079-20.552,4.938-6.207,10.218-11.506,15.839-15.895,5.618-4.385,11.824-7.254,18.617-8.605v-.405c-5.558,0-11.609-.269-18.154-.81-6.548-.538-12.597-.81-18.154-.81-15.562,0-29.362,1.25-41.403,3.746-12.042,2.499-22.201,5.941-30.474,10.326-8.276,4.388-14.543,9.552-18.804,15.49-4.261,5.941-6.391,12.351-6.391,19.235,0,8.099,2.501,14.209,7.503,18.324,5.001,4.12,12.069,6.176,21.211,6.176,6.42,0,12.287-1.044,17.599-3.138,5.309-2.092,9.879-4.86,13.708-8.302,3.827-3.442,6.823-7.391,8.985-11.846,2.159-4.455,3.241-9.042,3.241-13.769v-3.847c0-1.348-.063-2.699-.185-4.05h2.223ZM216.05,33.185l-65.578,106.505.37.405c2.47-3.372,5.372-7.254,8.707-11.643,3.335-4.385,6.947-8.536,10.837-12.452,3.891-3.914,7.995-7.22,12.319-9.922,4.321-2.699,8.644-4.05,12.968-4.05,7.531,0,11.3,4.119,11.3,12.352,0,2.161-.712,4.727-2.13,7.694-1.422,2.971-3.213,6.109-5.372,9.415-2.163,3.31-4.479,6.65-6.947,10.023-2.472,3.375-4.788,6.649-6.947,9.82-2.162,3.173-3.953,6.144-5.372,8.909-1.421,2.768-2.13,5.097-2.13,6.985,0,1.486.399,2.733,1.204,3.746.802,1.012,1.881,1.519,3.241,1.519,2.84,0,5.957-.978,9.355-2.937,3.396-1.955,6.915-4.521,10.56-7.694,3.641-3.17,7.254-6.713,10.837-10.63,3.58-3.914,6.883-7.796,9.911-11.643,3.024-3.848,5.742-7.492,8.15-10.935,2.408-3.441,4.169-6.242,5.28-8.402l1.111.404c-1.36,2.566-3.273,5.67-5.743,9.314-2.472,3.645-5.279,7.492-8.429,11.542-3.149,4.049-6.547,8.067-10.188,12.047-3.645,3.983-7.289,7.562-10.93,10.731-3.645,3.174-7.257,5.739-10.838,7.694-3.583,1.955-6.917,2.937-10.003,2.937-3.213,0-5.836-1.082-7.873-3.24-2.038-2.157-3.057-5.128-3.057-8.909,0-2.698.709-5.669,2.13-8.909,1.419-3.239,3.21-6.511,5.372-9.82,2.16-3.306,4.476-6.612,6.947-9.921,2.469-3.307,4.785-6.445,6.947-9.416,2.159-2.968,3.951-5.701,5.372-8.2,1.418-2.496,2.13-4.622,2.13-6.378,0-2.158-.556-3.645-1.667-4.455-1.111-.81-2.472-1.215-4.075-1.215-3.089,0-6.516,1.25-10.281,3.746-3.769,2.499-7.659,5.771-11.671,9.82-4.015,4.05-7.998,8.605-11.949,13.667-3.953,5.062-7.688,10.159-11.207,15.288-3.52,5.132-6.608,9.991-9.263,14.578-2.657,4.591-4.724,8.505-6.206,11.744h-12.041c6.793-11.607,13.77-23.418,20.934-35.435,7.16-12.013,14.293-23.959,21.396-35.839,7.101-11.877,14.048-23.589,20.841-35.13,6.791-11.542,13.214-22.577,19.267-33.105l12.411-.608ZM285.887,103.649h12.042c-4.571,7.021-8.956,13.838-13.153,20.45-4.2,6.615-7.937,12.725-11.208,18.325-3.273,5.603-5.898,10.528-7.873,14.78-1.977,4.253-2.964,7.594-2.964,10.023,0,3.512,1.667,5.265,5.002,5.265,2.594,0,5.896-1.383,9.911-4.151,4.012-2.765,8.365-6.58,13.06-11.44,4.692-4.859,9.509-10.528,14.45-17.008,4.938-6.479,9.633-13.364,14.079-20.653l1.111.405c-3.335,5.536-7.257,11.51-11.764,17.919-4.51,6.413-9.233,12.387-14.172,17.92-4.94,5.536-9.882,10.159-14.819,13.87-4.941,3.714-9.572,5.568-13.895,5.568-3.583,0-6.205-.981-7.873-2.937-1.667-1.955-2.501-4.283-2.501-6.985,0-1.889.278-3.746.834-5.568s1.141-3.676,1.76-5.568l-.37-.202c-1.606,1.892-3.612,4.084-6.021,6.581-2.408,2.499-5.002,4.827-7.781,6.985-2.778,2.16-5.649,3.983-8.614,5.467-2.964,1.483-5.806,2.228-8.521,2.228-4.57,0-7.78-1.554-9.633-4.657s-2.778-6.612-2.778-10.529c0-5.533,1.604-11.643,4.816-18.324,3.21-6.682,7.285-12.959,12.227-18.831,4.938-5.872,10.311-10.763,16.116-14.68,5.804-3.914,11.301-5.872,16.487-5.872,2.47,0,4.632.374,6.484,1.114,1.853.743,3.396,1.755,4.631,3.037,1.233,1.284,2.191,2.733,2.871,4.353.678,1.62,1.204,3.31,1.575,5.062h.37l6.113-11.946ZM225.31,160.344c0,3.107.584,5.502,1.76,7.188,1.172,1.689,2.808,2.531,4.909,2.531s4.567-.842,7.409-2.531c2.84-1.687,5.804-3.948,8.893-6.783,3.086-2.835,6.143-6.106,9.17-9.82,3.024-3.711,5.711-7.659,8.059-11.846,2.344-4.182,4.261-8.435,5.742-12.756,1.482-4.318,2.224-8.435,2.224-12.352,0-3.104-.805-5.467-2.408-7.087-1.606-1.619-3.584-2.43-5.929-2.43-3.705,0-7.844,1.756-12.411,5.265-4.571,3.512-8.893,7.998-12.968,13.465s-7.503,11.51-10.281,18.122c-2.779,6.615-4.168,12.959-4.168,19.033ZM337.198,103.649l-24.452,37.054.37.405c2.594-3.373,5.618-7.321,9.077-11.846,3.456-4.521,7.161-8.808,11.115-12.857,3.951-4.05,8.058-7.457,12.318-10.225,4.261-2.766,8.49-4.151,12.69-4.151,3.705,0,6.576,1.114,8.613,3.341,2.038,2.228,3.057,5.097,3.057,8.605,0,2.161-.712,4.727-2.13,7.694-1.421,2.971-3.181,6.145-5.279,9.517-2.102,3.376-4.386,6.818-6.854,10.327-2.472,3.512-4.756,6.853-6.854,10.022-2.102,3.173-3.861,6.074-5.279,8.707-1.422,2.632-2.131,4.827-2.131,6.58,0,3.781,1.729,5.67,5.188,5.67,3.951,0,8.15-1.449,12.597-4.354,4.446-2.901,9.755-7.796,15.932-14.68,2.469-2.699,4.97-5.67,7.503-8.909,2.529-3.24,4.97-6.445,7.317-9.618,2.345-3.17,4.475-6.176,6.391-9.011,1.913-2.834,3.428-5.194,4.539-7.087l1.297.811c-2.473,4.05-5.65,8.877-9.541,14.478-3.89,5.603-8.122,11.104-12.689,16.502-2.718,3.239-5.497,6.347-8.336,9.314-2.843,2.971-5.683,5.567-8.521,7.795-2.843,2.228-5.65,3.983-8.429,5.265-2.779,1.281-5.529,1.924-8.244,1.924-3.583,0-6.548-1.082-8.892-3.24-2.348-2.157-3.52-5.128-3.52-8.909,0-4.05,1.481-8.469,4.445-13.263,2.964-4.789,6.235-9.617,9.818-14.477,3.58-4.86,6.854-9.517,9.818-13.972,2.964-4.454,4.446-8.368,4.446-11.744,0-1.619-.495-2.834-1.482-3.645-.99-.81-2.287-1.215-3.891-1.215-3.088,0-6.547,1.25-10.374,3.746-3.829,2.499-7.751,5.806-11.763,9.922-4.015,4.119-8.029,8.706-12.041,13.769-4.015,5.062-7.752,10.124-11.208,15.186-3.459,5.062-6.548,9.922-9.263,14.579-2.718,4.657-4.756,8.539-6.113,11.643h-11.485c3.213-5.938,6.641-11.978,10.281-18.122,3.642-6.141,7.254-12.215,10.837-18.224,3.581-6.005,7.008-11.81,10.282-17.413,3.271-5.6,6.205-10.696,8.799-15.287l12.041-.607ZM461.313,33.185c-10.128,17.55-20.257,34.795-30.382,51.734-10.128,16.942-20.626,33.646-31.492,50.114l.37.404c3.21-3.913,6.392-7.861,9.541-11.845,3.149-3.98,6.42-7.559,9.818-10.731,3.395-3.17,6.915-5.771,10.559-7.796,3.642-2.024,7.439-3.037,11.394-3.037,4.075,0,7.008,1.082,8.799,3.24,1.789,2.16,2.687,4.793,2.687,7.896,0,3.239-.897,6.109-2.687,8.605-1.791,2.499-4.015,4.657-6.669,6.479-2.657,1.822-5.558,3.274-8.707,4.354-3.148,1.081-6.021,1.892-8.613,2.43v.404c1.481.811,2.746,2.329,3.797,4.556,1.048,2.228,1.575,4.557,1.575,6.986,0,1.619-.278,3.309-.834,5.062-.556,1.756-1.204,3.578-1.945,5.467-.74,1.893-1.389,3.746-1.944,5.568-.557,1.822-.834,3.68-.834,5.568,0,2.566.987,3.848,2.964,3.848,3.335,0,7.531-1.62,12.597-4.86,5.062-3.239,10.436-7.963,16.117-14.173,3.951-4.319,7.966-9.112,12.041-14.377,4.076-5.264,8.458-11.607,13.153-19.033l1.667,1.215c-2.348,3.646-5.774,8.641-10.281,14.984-4.51,6.346-9.789,12.825-15.839,19.438-5.807,6.347-11.301,11.137-16.487,14.377-5.188,3.239-9.943,4.859-14.265,4.859-3.705,0-6.576-.88-8.614-2.633-2.037-1.752-3.057-4.454-3.057-8.099,0-1.889.432-4.016,1.297-6.379.862-2.359,1.789-4.656,2.779-6.884.986-2.228,1.913-4.318,2.778-6.277.862-1.955,1.297-3.543,1.297-4.758,0-2.562-1.051-3.848-3.149-3.848-1.236,0-2.687.272-4.354.811-1.667.541-3.552.81-5.65.81-1.852,0-2.778-.607-2.778-1.822s.927-1.822,2.778-1.822c.741,0,1.575.069,2.501.202.927.137,2.067.203,3.428.203,3.705,0,7.132-.472,10.281-1.418,3.149-.942,5.896-2.328,8.243-4.15,2.345-1.822,4.169-4.015,5.465-6.581,1.297-2.562,1.945-5.467,1.945-8.707,0-2.834-.619-4.926-1.853-6.276-1.235-1.348-2.718-2.024-4.445-2.024-2.348,0-5.065,1.047-8.151,3.138-3.089,2.095-6.392,4.93-9.911,8.505-3.52,3.578-7.103,7.694-10.744,12.351-3.645,4.657-7.164,9.517-10.56,14.579-3.398,5.062-6.576,10.124-9.54,15.186-2.964,5.062-5.497,9.821-7.596,14.275h-12.227c13.709-23.352,27.386-46.536,41.033-69.553,13.645-23.013,27.385-46.333,41.218-69.957l11.486-.608ZM550.23,103.649c-4.446,7.021-8.893,13.769-13.339,20.248-4.445,6.479-8.429,12.421-11.948,17.818-3.52,5.4-6.392,10.159-8.614,14.274-2.223,4.119-3.334,7.391-3.334,9.82,0,3.917,1.728,5.872,5.187,5.872,3.581,0,7.749-1.889,12.505-5.669,4.752-3.777,9.786-8.809,15.098-15.085,5.309-6.277,10.713-13.497,16.209-21.666,5.494-8.165,10.773-16.704,15.839-25.613h11.485c-7.288,10.934-14.078,22.172-20.377,33.713s-12.907,22.981-19.822,34.32c11.731-2.294,22.939-7.928,33.623-16.907,10.681-8.976,20.161-20.146,28.437-33.511l1.297.607c-8.893,14.852-18.988,26.763-30.289,35.738-11.3,8.979-22.757,14.478-34.363,16.502-4.817,7.153-9.727,14.408-14.728,21.767-5.002,7.356-10.499,13.972-16.487,19.844-5.992,5.872-12.565,10.662-19.729,14.376-7.161,3.711-15.251,5.568-24.268,5.568-4.076,0-7.935-.576-11.578-1.721-3.642-1.148-6.822-2.734-9.541-4.759-2.715-2.024-4.877-4.454-6.483-7.289-1.604-2.835-2.408-5.872-2.408-9.112,0-7.02,2.13-12.148,6.391-15.388,4.262-3.24,9.419-4.86,15.469-4.86v.607c-4.446,1.079-7.717,3.271-9.818,6.581-2.099,3.306-3.149,7.457-3.149,12.452,0,3.373.62,6.379,1.853,9.011,1.236,2.633,2.843,4.825,4.816,6.581,1.978,1.752,4.232,3.104,6.762,4.049,2.533.943,5.158,1.418,7.873,1.418,5.807,0,11.425-1.487,16.858-4.455,5.436-2.971,10.651-6.884,15.653-11.743,5.002-4.86,9.786-10.361,14.357-16.503,4.567-6.144,8.892-12.487,12.967-19.033,4.076-6.549,7.873-12.959,11.394-19.235,3.52-6.277,6.762-11.912,9.726-16.907l-.371-.405c-1.977,2.566-4.385,5.568-7.225,9.011-2.842,3.442-5.96,6.717-9.354,9.82-3.398,3.106-7.011,5.739-10.838,7.896-3.829,2.158-7.78,3.24-11.855,3.24-3.954,0-6.794-.88-8.521-2.633-1.729-1.752-2.594-4.116-2.594-7.087,0-2.698.648-5.567,1.945-8.605,1.297-3.037,3.363-6.85,6.206-11.439,2.839-4.588,6.451-10.19,10.837-16.807,4.382-6.612,9.662-14.848,15.839-24.702h12.412ZM694.907,122.075c-2.964,3.645-6.298,6.549-10.003,8.706-3.705,2.161-7.35,3.24-10.93,3.24-3.459,0-6.424-.842-8.893-2.531-2.472-1.687-4.385-3.676-5.742-5.973h-.371c-1.235,5.131-3.52,10.599-6.854,16.4-3.334,5.806-7.317,11.137-11.948,15.996s-9.726,8.909-15.283,12.149c-5.558,3.239-11.239,4.859-17.043,4.859-5.312,0-9.326-1.687-12.041-5.062-2.719-3.372-4.076-7.896-4.076-13.566,0-2.967.678-6.409,2.038-10.326,1.357-3.913,3.242-7.862,5.65-11.845,2.408-3.98,5.247-7.897,8.521-11.744,3.271-3.848,6.822-7.289,10.651-10.327,3.827-3.037,7.873-5.467,12.134-7.289s8.551-2.733,12.875-2.733c5.062,0,8.985,1.62,11.764,4.859,2.778,3.24,4.29,7.426,4.539,12.554.246,3.107,1.574,5.974,3.982,8.605,2.408,2.633,5.711,3.948,9.911,3.948,3.705,0,7.192-1.012,10.467-3.037,3.271-2.024,6.327-4.656,9.17-7.896l1.481,1.013ZM601.726,161.154c0,3.512.616,6.276,1.853,8.302,1.233,2.024,3.086,3.037,5.558,3.037,3.334,0,6.637-.978,9.911-2.937,3.271-1.955,6.42-4.521,9.447-7.694,3.024-3.17,5.836-6.783,8.429-10.832,2.594-4.05,4.846-8.232,6.762-12.555,1.913-4.318,3.428-8.535,4.539-12.654,1.111-4.116,1.667-7.862,1.667-11.238,0-2.835-.648-5.229-1.945-7.188-1.297-1.956-3.306-2.937-6.021-2.937-2.594,0-5.372.911-8.336,2.733s-5.96,4.221-8.985,7.188c-3.027,2.971-5.898,6.413-8.613,10.326-2.719,3.917-5.158,7.967-7.317,12.149-2.163,4.186-3.861,8.371-5.095,12.554-1.236,4.186-1.853,8.099-1.853,11.744ZM714.726,103.649c-4.817,7.156-9.448,13.971-13.895,20.45-4.445,6.479-8.399,12.421-11.855,17.818-3.459,5.4-6.206,10.093-8.244,14.072-2.037,3.983-3.057,7.122-3.057,9.416,0,2.16.492,3.746,1.482,4.758.987,1.013,2.283,1.519,3.89,1.519,2.345,0,4.909-.81,7.688-2.43,2.778-1.62,5.618-3.711,8.521-6.276,2.9-2.563,5.742-5.397,8.521-8.505,2.778-3.104,5.372-6.176,7.78-9.213s4.507-5.837,6.299-8.402c1.789-2.562,3.117-4.588,3.982-6.075l16.303-27.132h12.782c-6.669,9.991-12.319,18.46-16.951,25.411-4.631,6.954-8.399,12.857-11.3,17.717-2.903,4.86-4.973,8.809-6.206,11.846-1.235,3.037-1.853,5.704-1.853,7.998,0,1.619.432,3.005,1.297,4.15.862,1.148,2.099,1.722,3.705,1.722,2.469,0,5.309-.978,8.521-2.937,3.21-1.955,6.545-4.521,10.004-7.694,3.456-3.17,6.883-6.748,10.281-10.731,3.396-3.979,6.605-7.928,9.633-11.845,3.024-3.914,5.771-7.594,8.243-11.035,2.47-3.442,4.383-6.242,5.743-8.403l1.853.607c-1.482,2.297-3.459,5.233-5.928,8.808-2.473,3.579-5.251,7.359-8.337,11.339-3.088,3.983-6.361,8.033-9.818,12.149-3.458,4.119-7.01,7.796-10.651,11.035-3.645,3.239-7.225,5.907-10.744,7.998-3.521,2.091-6.826,3.139-9.911,3.139-3.459,0-6.206-1.048-8.244-3.139-2.037-2.091-3.057-4.892-3.057-8.403,0-2.698.399-5.296,1.204-7.795.802-2.496,1.39-4.082,1.76-4.759l-.37-.404c-2.594,3.239-5.312,6.346-8.151,9.313-2.842,2.971-5.682,5.568-8.521,7.796-2.842,2.228-5.714,4.018-8.613,5.365-2.903,1.348-5.775,2.025-8.614,2.025-3.954,0-6.794-.981-8.521-2.937-1.729-1.955-2.594-4.283-2.594-6.985,0-3.372.833-7.018,2.501-10.934,1.667-3.914,3.982-8.302,6.946-13.162,2.965-4.859,6.513-10.326,10.652-16.4,4.136-6.074,8.675-13.025,13.616-20.855h12.227Z"/>
  </g>
</svg>